# xmcd
#
# Track frame offsets: 
#        182
#        19367
#        37927
#        59202
#        74015
#        93145
#        114912
#        136365
#        162602
#        182287
#        202297
#        218615
#        238142
#        252835
#        278742
#        297650
#
# Disc length: 4170 seconds
#
# Revision: 5
# Processed by: cddbd v1.5.2PL0 Copyright (c) Steve Scherf et al.
# Submitted via: ExactAudioCopyFreeDBPlugin 1.0
#
DISCID=fa104810
DTITLE=Jimmy Lafave - Highway Trance
DYEAR=1994
DGENRE=Americana
TTITLE0=Shakin' in Your Hips
TTITLE1=When the Tears Fall
TTITLE2=Leslie, Talk to Me
TTITLE3=Cafe in the Rain
TTITLE4=Austin After Midnight
TTITLE5=Give Your Sweet Love to Me
TTITLE6=The Open Road
TTITLE7=Early Summer Rain
TTITLE8=Minstrel Boy Howling at the Moon
TTITLE9=I've Got Your Picture
TTITLE10=The Perfect Combination
TTITLE11=Dark Dancing Eyes
TTITLE12=Get It, Got It, Good
TTITLE13=Prayer For You
TTITLE14=When I See You Again
TTITLE15=Route 66 Revisited
EXTD=\t
EXTT0=
EXTT1=
EXTT2=
EXTT3=
EXTT4=
EXTT5=
EXTT6=
EXTT7=
EXTT8=
EXTT9=
EXTT10=
EXTT11=
EXTT12=
EXTT13=
EXTT14=
EXTT15=
PLAYORDER=
